<svg width="20" height="20" viewBox="0 0 20 20" fill="none" xmlns="http://www.w3.org/2000/svg">
<path d="M10 20C15.5228 20 20 15.5228 20 10C20 4.47715 15.5228 0 10 0C4.47715 0 0 4.47715 0 10C0 15.5228 4.47715 20 10 20Z" fill="url(#paint0_linear_611_1613)"/>
<path fill-rule="evenodd" clip-rule="evenodd" d="M4.51633 9.89096C7.4291 8.6137 9.37614 7.78815 10.3574 7.38317C13.13 6.23052 13.7064 6.02803 14.0802 6.01245C14.1581 6.01245 14.345 6.02803 14.4696 6.12149C14.5631 6.19937 14.5942 6.3084 14.6098 6.38628C14.6254 6.46416 14.6409 6.6355 14.6254 6.77569C14.4696 8.3489 13.831 12.1963 13.4883 13.9564C13.3481 14.704 13.0677 14.9533 12.8029 14.9844C12.2266 15.0311 11.7749 14.595 11.2141 14.2368C10.3419 13.6604 9.84343 13.3022 8.98673 12.7414C8.00542 12.0872 8.64405 11.729 9.2048 11.1526C9.34499 10.9969 11.9151 8.676 11.9618 8.45793C11.9618 8.42678 11.9774 8.33332 11.9151 8.2866C11.8528 8.23987 11.7749 8.25544 11.7126 8.27102C11.6191 8.28659 10.2173 9.22117 7.4914 11.0592C7.08642 11.3396 6.72816 11.4642 6.40106 11.4642C6.04281 11.4642 5.35745 11.2617 4.84343 11.0903C4.22038 10.8878 3.72193 10.7788 3.76866 10.4361C3.79982 10.2648 4.04904 10.0779 4.51633 9.89096Z" fill="white"/>
<defs>
<linearGradient id="paint0_linear_611_1613" x1="0" y1="9.99276" x2="19.9855" y2="9.99276" gradientUnits="userSpaceOnUse">
<stop stop-color="#2AABEE"/>
<stop offset="1" stop-color="#229ED9"/>
</linearGradient>
</defs>
</svg>
