<svg width="20" height="22" viewBox="0 0 20 22" fill="none" xmlns="http://www.w3.org/2000/svg">
<path fill-rule="evenodd" clip-rule="evenodd" d="M17.0859 3.87197C15.2061 1.98972 12.7059 0.952615 10.042 0.95166C4.55283 0.95166 0.08547 5.41855 0.08356 10.9092C0.082605 12.6644 0.54147 14.3776 1.41288 15.8874L0 21.0481L5.27909 19.6634C6.7335 20.457 8.37128 20.8748 10.0377 20.8753H10.042C15.5302 20.8753 19.9981 16.4079 20 10.9173C20.0009 8.25627 18.9662 5.7547 17.0859 3.87244V3.87197ZM10.042 19.1935H10.0387C8.55367 19.1931 7.09689 18.7939 5.82583 18.0399L5.52357 17.8604L2.39078 18.6822L3.22686 15.6277L3.03013 15.3144C2.20169 13.9966 1.76383 12.4734 1.76479 10.9097C1.7667 6.3463 5.47963 2.63337 10.0454 2.63337C12.2561 2.63432 14.3342 3.49619 15.8969 5.06091C17.4598 6.62516 18.3197 8.7051 18.3188 10.9163C18.3168 15.4802 14.6039 19.1931 10.042 19.1931V19.1935ZM14.5819 12.9948C14.3332 12.8702 13.1099 12.2685 12.8816 12.1855C12.6534 12.1024 12.4877 12.0609 12.322 12.3101C12.1563 12.5594 11.6793 13.1199 11.5342 13.2856C11.389 13.4518 11.2438 13.4723 10.9951 13.3477C10.7463 13.223 9.94461 12.9604 8.99395 12.1129C8.25433 11.453 7.75483 10.6384 7.60972 10.3892C7.46456 10.1399 7.59444 10.0053 7.71856 9.8816C7.83028 9.76988 7.96733 9.59083 8.09194 9.44566C8.21661 9.30049 8.25767 9.19644 8.34072 9.03071C8.42383 8.86455 8.38228 8.71944 8.32022 8.59477C8.25811 8.47016 7.76061 7.24538 7.55289 6.74738C7.35089 6.26227 7.14561 6.32816 6.99328 6.32004C6.84811 6.31288 6.68244 6.31145 6.51628 6.31145C6.35011 6.31145 6.08078 6.37352 5.85256 6.62277C5.62433 6.87199 4.98162 7.4741 4.98162 8.69838C4.98162 9.92266 5.87311 11.1064 5.99772 11.2725C6.12233 11.4387 7.75244 13.9517 10.2483 15.0299C10.8418 15.2863 11.3054 15.4395 11.6669 15.5542C12.2628 15.7437 12.8052 15.717 13.234 15.653C13.712 15.5814 14.7061 15.0509 14.9133 14.4698C15.1206 13.8887 15.1206 13.3902 15.0585 13.2865C14.9964 13.1829 14.8303 13.1204 14.5815 12.9958L14.5819 12.9948Z" fill="#25D366"/>
</svg>
